<?xml version="1.0" standalone="no"?>
<!DOCTYPE svg PUBLIC "-//W3C//DTD SVG 20010904//EN"
 "http://www.w3.org/TR/2001/REC-SVG-20010904/DTD/svg10.dtd">
<svg version="1.0" xmlns="http://www.w3.org/2000/svg"
 width="405.000000pt" height="203.000000pt" viewBox="0 0 405.000000 203.000000"
 preserveAspectRatio="xMidYMid meet">

<g transform="translate(0.000000,203.000000) scale(0.100000,-0.100000)"
fill="#000000" stroke="none">
<path d="M1765 1304 c-17 -9 -33 -10 -49 -4 -14 5 -60 5 -112 -1 -88 -10 -223
-11 -488 -4 -135 4 -139 3 -160 -20 l-22 -24 -22 21 c-20 20 -32 22 -168 22
-90 1 -153 -3 -162 -10 -26 -19 -18 -65 17 -96 17 -15 38 -28 45 -28 8 0 31
-28 52 -62 21 -35 59 -91 86 -126 45 -57 49 -67 46 -110 -3 -40 -6 -47 -28
-52 -14 -3 -31 -18 -39 -32 -13 -23 -13 -29 2 -52 32 -49 56 -57 132 -47 38 6
96 7 130 4 55 -5 65 -3 84 16 30 30 26 49 -19 92 -57 54 -56 103 3 219 24 47
49 100 55 118 9 26 16 32 40 32 l30 0 4 -132 c6 -155 25 -220 85 -281 58 -61
105 -80 182 -75 172 9 241 128 226 386 -7 104 -6 112 11 112 9 0 25 7 34 15
14 13 19 13 36 1 20 -14 20 -16 3 -128 -10 -62 -18 -133 -19 -158 0 -52 -7
-65 -38 -74 -49 -16 -49 -74 2 -113 36 -29 198 -31 227 -2 27 27 24 46 -17 87
-30 30 -35 40 -32 76 l3 41 46 -90 c61 -117 99 -152 145 -134 17 6 31 36 65
136 44 133 57 142 58 43 1 -42 -2 -47 -29 -57 -44 -17 -42 -61 6 -103 30 -26
41 -30 63 -24 14 5 121 8 236 9 116 0 216 4 223 8 24 16 13 62 -23 97 -35 34
-43 62 -26 89 6 10 22 -12 56 -77 49 -96 79 -125 123 -120 20 2 32 13 47 44
l20 42 15 -31 c27 -55 56 -68 130 -57 36 5 95 10 133 10 53 0 71 4 87 20 30
30 25 49 -25 96 -33 30 -45 49 -46 70 0 16 -8 83 -18 149 -11 73 -14 121 -8
124 20 8 47 42 47 60 0 10 -13 33 -30 51 l-30 32 -97 -7 c-54 -4 -106 -12
-115 -17 -22 -11 -43 -51 -78 -148 -15 -41 -32 -76 -37 -77 -4 -2 -32 41 -60
95 -71 132 -95 155 -181 163 -81 8 -112 -6 -112 -51 0 -21 10 -37 36 -58 l36
-30 -21 -145 c-12 -79 -21 -156 -21 -171 0 -20 -5 -26 -22 -26 -13 0 -28 4
-35 8 -6 4 -21 77 -33 162 l-21 154 25 19 c36 26 34 65 -4 102 l-29 28 -107
-10 c-85 -8 -110 -14 -121 -29 -7 -10 -30 -62 -51 -116 -20 -54 -40 -98 -44
-98 -4 0 -31 43 -59 96 -65 120 -91 152 -132 158 -85 13 -117 13 -142 0z m160
-49 c6 -7 47 -79 90 -159 44 -80 82 -146 85 -146 3 0 28 62 55 138 28 75 57
144 66 153 20 20 189 35 200 17 11 -17 3 -26 -29 -33 l-27 -6 22 -152 c12 -84
22 -172 23 -197 0 -53 13 -70 53 -70 22 0 28 -4 25 -17 -3 -16 -21 -19 -128
-25 -69 -5 -131 -6 -137 -3 -23 8 -14 24 20 33 l32 9 -3 69 c-3 89 -32 284
-42 284 -4 0 -25 -48 -46 -107 -21 -60 -52 -148 -70 -198 -19 -53 -38 -91 -47
-93 -10 -2 -40 46 -98 157 -47 90 -86 155 -90 148 -6 -12 -29 -198 -29 -237 0
-11 6 -20 14 -20 30 0 66 -20 60 -33 -8 -21 -178 -15 -182 7 -2 10 7 18 25 22
36 9 43 20 43 69 0 38 31 262 46 331 6 30 4 32 -27 39 -40 9 -61 23 -53 37 9
14 137 0 149 -17z m742 15 c17 0 37 -30 108 -161 48 -88 90 -157 94 -152 4 4
25 55 46 113 48 133 70 177 92 184 10 2 54 6 98 8 68 3 80 1 83 -14 2 -11 -6
-18 -28 -23 -27 -6 -31 -10 -26 -33 6 -32 33 -231 44 -322 7 -65 7 -65 41 -70
35 -5 53 -27 29 -34 -7 -2 -71 -7 -141 -10 -119 -6 -128 -5 -125 11 2 11 15
20 33 23 29 5 30 7 27 55 -5 81 -33 278 -41 293 -9 16 -33 -41 -111 -266 -33
-94 -47 -122 -59 -120 -9 2 -48 65 -91 150 -41 81 -80 152 -86 158 -8 8 -14
-16 -23 -90 -18 -162 -17 -167 25 -174 26 -5 34 -12 32 -24 -3 -14 -16 -17
-85 -16 -44 1 -86 5 -92 9 -18 10 6 35 34 35 21 0 23 6 30 73 7 77 42 311 51
339 4 13 -4 18 -38 25 -30 6 -44 14 -46 27 -4 17 1 18 49 13 30 -4 64 -7 76
-7z m-1787 -23 c0 -11 -10 -20 -30 -23 -16 -4 -30 -9 -30 -11 0 -8 86 -134
114 -168 23 -28 26 -29 41 -14 9 9 32 54 51 100 l33 84 -40 8 c-29 6 -39 13
-37 24 4 24 201 24 206 1 3 -16 -24 -28 -63 -28 -16 0 -25 -14 -44 -70 -13
-38 -39 -95 -58 -125 -31 -52 -33 -62 -33 -146 0 -71 3 -89 14 -89 8 0 27 -5
42 -10 50 -19 11 -33 -103 -36 -59 -1 -117 -4 -128 -6 -12 -2 -21 4 -23 14 -2
12 6 20 30 26 l33 8 3 72 3 71 -49 60 c-27 33 -71 99 -98 146 -35 61 -55 85
-69 85 -28 0 -49 16 -43 31 4 11 37 14 142 14 124 0 136 -2 136 -18z m833 16
c13 -12 -16 -33 -45 -33 -23 0 -28 -4 -24 -17 3 -10 8 -68 12 -128 7 -127 -5
-208 -42 -272 -53 -91 -204 -113 -282 -40 -63 58 -92 194 -76 354 l10 92 -26
3 c-14 2 -26 10 -28 21 -3 15 8 17 128 17 120 0 131 -2 128 -17 -2 -12 -14
-19 -34 -21 -40 -4 -44 -22 -44 -191 1 -157 18 -217 68 -243 60 -30 120 10
143 94 12 44 14 224 3 293 -6 42 -8 44 -42 47 -50 4 -57 35 -10 41 58 7 154 7
161 0z m-725 -140 c-9 -21 -21 -38 -28 -38 -7 0 -22 16 -33 36 l-21 37 24 25
25 26 24 -24 c23 -22 23 -25 9 -62z m568 33 c17 -13 19 -27 19 -138 0 -136
-13 -179 -61 -200 -20 -10 -28 -8 -42 6 -14 14 -18 42 -20 171 l-4 154 34 10
c46 13 52 13 74 -3z m1444 -233 c0 -10 3 -35 6 -55 5 -31 3 -39 -12 -44 -11
-4 -27 -14 -36 -22 -23 -19 -23 -13 4 70 21 65 38 88 38 51z"/>
<path d="M2276 1212 c-2 -4 4 -57 14 -118 11 -61 23 -150 27 -200 8 -84 9 -89
32 -92 24 -4 24 -4 17 71 -4 41 -15 134 -26 206 -11 73 -20 135 -20 137 0 7
-39 4 -44 -4z"/>
<path d="M1898 1177 c-3 -16 21 -75 77 -187 74 -148 83 -162 94 -143 6 12 11
26 11 31 0 10 -157 301 -170 315 -4 5 -9 -2 -12 -16z"/>
<path d="M3045 1211 c-3 -6 3 -66 14 -133 11 -68 23 -158 27 -200 5 -66 9 -78
25 -78 10 0 20 4 23 8 5 9 -18 219 -37 332 -9 55 -17 76 -29 78 -9 2 -19 -2
-23 -7z"/>
<path d="M2667 1193 c-4 -3 -7 -15 -7 -25 0 -17 90 -203 143 -298 l26 -44 10
27 c9 24 1 44 -75 185 -97 178 -89 164 -97 155z"/>
<path d="M720 1214 c0 -15 77 -134 126 -195 53 -67 53 -67 56 -145 3 -71 5
-79 23 -79 18 0 20 8 23 82 l3 83 -49 59 c-27 33 -69 91 -93 130 -33 54 -49
71 -66 71 -13 0 -23 -3 -23 -6z"/>
<path d="M1304 1175 c-10 -70 0 -286 15 -315 17 -31 52 -70 63 -70 5 0 2 13
-7 30 -26 51 -38 174 -28 293 8 106 8 107 -14 107 -18 0 -23 -7 -29 -45z"/>
</g>
</svg>
