<?xml version="1.0" standalone="no"?>
<!DOCTYPE svg PUBLIC "-//W3C//DTD SVG 20010904//EN"
 "http://www.w3.org/TR/2001/REC-SVG-20010904/DTD/svg10.dtd">
<svg version="1.0" xmlns="http://www.w3.org/2000/svg"
 width="450.000000pt" height="340.000000pt" viewBox="0 0 450.000000 340.000000"
 preserveAspectRatio="xMidYMid meet">

<g transform="translate(0.000000,340.000000) scale(0.100000,-0.100000)"
fill="#000000" stroke="none">
<path d="M2160 2487 c-120 -26 -195 -105 -225 -235 -10 -44 -10 -63 1 -105 8
-29 14 -53 14 -54 0 -1 -8 -4 -17 -6 -17 -4 -17 -5 0 -6 38 -2 14 -19 -37 -24
-87 -9 -173 -62 -217 -134 -13 -20 -30 -64 -39 -97 -13 -52 -14 -68 -3 -110
15 -59 14 -57 34 -43 33 24 69 90 75 139 6 40 10 48 23 42 128 -56 193 -56
324 1 14 6 17 2 17 -21 2 -72 74 -189 122 -196 15 -3 25 -1 22 4 -3 4 -14 8
-26 8 -14 0 -18 5 -14 16 3 9 6 18 6 20 0 2 5 4 10 4 6 0 10 -7 10 -15 0 -22
13 -18 42 13 36 39 58 85 58 126 0 19 4 38 10 41 5 3 29 -4 52 -17 61 -31 184
-32 247 0 57 28 61 28 61 -4 0 -46 21 -99 55 -140 18 -21 36 -36 40 -32 4 3 9
25 12 47 3 23 10 41 16 41 6 0 6 4 0 13 -6 6 -13 32 -17 56 -19 126 -152 241
-278 241 -33 0 -35 10 -15 87 8 29 10 58 6 65 -5 7 -9 25 -9 39 0 41 -57 144
-95 174 -80 60 -172 82 -265 62z m-55 -213 c59 -28 195 -27 252 3 46 24 53 22
53 -19 0 -40 22 -88 59 -130 36 -42 33 -61 -12 -76 -18 -5 -24 -10 -14 -11 26
-2 21 -15 -20 -52 -41 -37 -119 -76 -130 -66 -9 10 35 55 86 88 47 31 49 39 3
15 -27 -14 -128 -114 -130 -129 -3 -31 -15 -67 -22 -67 -9 0 -33 61 -26 67 6
6 -85 103 -108 115 -10 5 3 -11 29 -36 27 -25 46 -49 42 -52 -13 -13 -95 27
-138 68 -47 43 -42 58 12 39 16 -5 27 -6 25 -2 -3 5 -26 14 -51 20 -25 6 -48
18 -51 25 -3 8 10 35 30 60 35 46 56 100 56 144 0 13 3 22 8 20 4 -2 25 -13
47 -24z m548 -254 c52 -25 97 -70 127 -127 23 -46 37 -144 26 -188 -7 -27 -7
-27 -28 -9 -31 28 -58 93 -58 142 0 23 -4 42 -9 42 -5 0 -33 -12 -63 -27 -79
-40 -172 -39 -250 4 -31 17 -60 28 -63 25 -3 -3 -5 -25 -5 -49 0 -53 -19 -100
-53 -132 l-26 -23 -7 37 c-8 44 0 121 16 157 8 18 23 28 44 32 45 9 115 55
156 104 35 42 35 42 92 37 32 -2 77 -14 101 -25z"/>
<path d="M2808 1643 c7 -3 16 -2 19 1 4 3 -2 6 -13 5 -11 0 -14 -3 -6 -6z"/>
<path d="M2498 1573 c7 -3 16 -2 19 1 4 3 -2 6 -13 5 -11 0 -14 -3 -6 -6z"/>
<path d="M2538 1573 c7 -3 16 -2 19 1 4 3 -2 6 -13 5 -11 0 -14 -3 -6 -6z"/>
<path d="M2360 1516 c0 -3 9 -10 20 -16 11 -6 20 -8 20 -6 0 3 -9 10 -20 16
-11 6 -20 8 -20 6z"/>
<path d="M1918 1463 c6 -2 18 -2 25 0 6 3 1 5 -13 5 -14 0 -19 -2 -12 -5z"/>
<path d="M2518 1463 c7 -3 16 -2 19 1 4 3 -2 6 -13 5 -11 0 -14 -3 -6 -6z"/>
<path d="M1177 1357 c-15 -5 -27 -14 -27 -21 0 -16 65 -150 106 -217 31 -51
34 -64 34 -133 l0 -76 33 0 32 0 0 78 c0 73 3 82 51 177 29 55 59 117 67 138
l16 37 -30 15 -29 16 -50 -107 c-30 -65 -54 -104 -62 -102 -7 2 -36 49 -63
104 -50 98 -51 100 -78 91z"/>
<path d="M1689 1363 c-1 -5 0 -89 1 -188 2 -202 9 -226 70 -257 70 -36 156
-14 197 49 15 23 19 54 21 205 l4 178 -36 0 -36 0 0 -160 c0 -178 -9 -212 -56
-224 -35 -9 -81 10 -91 38 -4 11 -7 55 -8 96 0 41 -2 119 -3 173 l-2 97 -30 0
c-16 0 -31 -3 -31 -7z"/>
<path d="M2481 1210 c-35 -88 -67 -160 -71 -160 -4 0 -37 66 -73 148 l-66 147
-50 3 -51 3 0 -220 0 -221 35 0 35 0 1 108 c0 59 3 125 7 147 l7 40 57 -125
56 -125 44 -3 43 -3 29 78 c16 43 40 103 54 133 l25 55 8 -45 c4 -25 8 -93 8
-152 l1 -108 35 0 35 0 -6 223 c-5 143 -11 225 -18 229 -6 4 -27 8 -46 8 l-35
0 -64 -160z"/>
<path d="M3150 1210 c-35 -88 -68 -159 -74 -157 -6 2 -40 69 -76 150 l-65 146
-47 1 -48 0 0 -220 0 -220 29 0 c37 0 41 14 41 162 0 64 4 119 9 122 5 3 33
-49 63 -117 l55 -122 40 -3 40 -3 53 130 c29 72 56 131 60 131 10 0 20 -105
20 -211 l0 -89 30 0 30 0 -1 198 c-2 253 -2 256 -55 260 l-40 3 -64 -161z"/>
<path d="M1075 835 c-64 -63 7 -157 86 -114 48 25 43 110 -8 130 -37 14 -52
11 -78 -16z m85 -3 c43 -34 17 -112 -37 -112 -44 0 -79 60 -55 96 9 13 43 33
58 34 7 0 22 -8 34 -18z"/>
<path d="M1890 840 c-11 -21 3 -41 46 -66 15 -10 17 -15 8 -30 -7 -11 -21 -19
-33 -18 -11 0 -21 -3 -21 -8 0 -12 44 -10 58 4 22 22 13 53 -19 72 -32 19 -36
52 -6 50 9 -1 14 2 11 7 -9 16 -33 10 -44 -11z"/>
<path d="M2340 835 c-6 -14 -14 -36 -20 -50 -14 -36 -28 -31 -50 20 -30 70
-50 60 -50 -25 0 -40 4 -70 10 -70 6 0 10 21 10 48 l1 47 19 -24 c11 -13 20
-29 20 -37 0 -29 36 -14 49 21 17 48 31 44 31 -10 0 -25 5 -45 10 -45 11 0 13
71 4 119 -8 37 -21 40 -34 6z"/>
<path d="M2500 785 l0 -75 43 1 c42 1 42 1 9 9 -18 4 -35 10 -39 13 -10 10 8
27 30 28 20 1 20 2 -3 8 -21 6 -25 13 -25 41 0 32 3 35 28 35 15 -1 27 3 27 7
0 4 -16 8 -35 8 l-35 0 0 -75z"/>
<path d="M2948 811 c-11 -28 -26 -51 -33 -51 -7 0 -20 20 -29 45 -28 71 -46
59 -45 -27 1 -76 3 -79 14 -15 5 31 9 36 20 27 7 -6 16 -22 19 -35 9 -36 33
-30 51 12 18 43 32 35 38 -22 2 -25 4 -13 5 32 1 40 -3 75 -8 78 -6 4 -20 -16
-32 -44z"/>
<path d="M3119 856 c-2 -2 -3 -36 -1 -75 l4 -71 41 1 42 2 -35 6 c-41 7 -47
32 -10 42 25 7 25 7 -3 8 -26 1 -28 4 -25 39 3 33 6 37 31 37 15 -1 27 3 27 7
0 8 -63 11 -71 4z"/>
<path d="M3363 848 c-15 -19 -42 -138 -32 -138 5 0 9 6 9 14 0 31 64 35 80 5
22 -39 20 -12 -3 56 -24 71 -37 85 -54 63z m35 -47 c12 -34 8 -41 -26 -41 -20
0 -23 4 -18 23 3 12 6 28 6 35 0 24 28 12 38 -17z"/>
<path d="M841 810 c12 -25 26 -58 30 -75 7 -30 7 -30 8 7 1 20 5 39 10 42 5 3
14 21 20 38 11 34 8 32 -26 -19 -13 -17 -13 -17 -25 0 -32 46 -37 49 -17 7z"/>
<path d="M1322 794 c-2 -65 8 -84 45 -84 30 0 43 28 42 92 l-2 53 -6 -57 c-7
-66 -22 -88 -49 -72 -12 8 -19 30 -23 70 l-6 59 -1 -61z"/>
<path d="M1672 794 c-2 -65 8 -84 45 -84 30 0 43 28 43 91 0 70 -18 52 -22
-21 -3 -48 -6 -55 -25 -58 -25 -4 -30 10 -36 88 -3 38 -4 36 -5 -16z"/>
<path d="M3572 835 c-1 -11 -5 -44 -8 -72 l-7 -53 49 1 c45 2 46 2 14 8 l-35
6 -6 65 c-3 36 -6 56 -7 45z"/>
</g>
</svg>
